# xmcd
#
# Track frame offsets: 
#        150
#        32895
#        38715
#        65047
#        74857
#        89667
#        117907
#        140132
#        153142
#        176697
#        189855
#        216460
#
# Disc length: 3047 seconds
#
# Revision: 1
# Processed by: cddbd v1.5.2PL0 Copyright (c) Steve Scherf et al.
# Submitted via: ExactAudioCopy v0.99pb4
#
DISCID=bb0be50c
DTITLE=Wildwest - Abenteuer - Der geheime Schwur (14)
DYEAR=2000
DGENRE=Speech
TTITLE0=Ein aufregender Vorlesewettbewerb
TTITLE1=Der rätselhafte Fremde
TTITLE2=Ein Club wird gegründet
TTITLE3=Ruhestörung
TTITLE4=Riskante Verfolgungsjagd
TTITLE5=Billy ist weg
TTITLE6=Dr Kimani - ein Lügner
TTITLE7=Kreuzverhör
TTITLE8=Ein Plan geht schief
TTITLE9=Reingelegt
TTITLE10=Enthüllungen
TTITLE11=Gottvertrauen
EXTD=
EXTT0=
EXTT1=
EXTT2=
EXTT3=
EXTT4=
EXTT5=
EXTT6=
EXTT7=
EXTT8=
EXTT9=
EXTT10=
EXTT11=
PLAYORDER=
